<svg width="162" height="46" viewBox="0 0 162 46" fill="none" xmlns="http://www.w3.org/2000/svg">
<g clip-path="url(#clip0_4611_7502)">
<path d="M115.999 11.6602V45.7437H150.281V11.6602H115.999ZM140.839 36.3544H125.441V21.0424H140.839V36.3544Z" fill="#D2374A"/>
<path d="M33.2447 11.7188C28.9495 11.7188 26.4941 14.1746 26.4941 18.1254C26.4941 22.0762 28.9137 24.5321 33.2447 24.5321C37.5757 24.5321 40.0239 22.0477 40.0239 18.1254C40.0239 14.0465 37.5041 11.7188 33.2447 11.7188ZM33.2447 21.2647C31.7342 21.2647 30.5889 20.4176 30.5889 18.1397C30.5889 15.8618 31.7342 15.0218 33.2447 15.0218C34.7552 15.0218 35.9292 15.8689 35.9292 18.1397C35.9292 20.4105 34.7623 21.2505 33.2447 21.2505V21.2647Z" fill="white"/>
<path d="M45.8869 15.2272C46.3965 15.1534 46.911 15.1177 47.426 15.1204C48.4529 15.0976 49.479 15.1955 50.4827 15.4123V12.0523C48.7301 11.6525 46.9156 11.5993 45.1424 11.8957C43.997 12.031 41.6561 12.3442 41.6561 12.3442V24.1895H45.8869V15.2272Z" fill="white"/>
<path d="M56.36 21.0428L57.5411 19.8469L61.4641 24.1892H66.2962L60.1612 17.3412L65.4944 12.0379H60.4547L56.36 16.1239V8.05859H52.1292V24.1892H56.36V21.0428Z" fill="white"/>
<path d="M79.0027 17.3495C79.0027 14.6516 77.2703 11.7188 72.8534 11.7188C69.5318 11.7188 66.3463 13.4628 66.3463 18.1254C66.3463 22.4606 69.8755 24.5321 73.6552 24.5321C75.1138 24.5249 76.5703 24.4203 78.0148 24.2189V21.101C76.9769 21.2731 75.9301 21.3871 74.8793 21.4427C72.8534 21.4427 70.892 21.3857 70.4911 19.3071H78.788C78.9338 18.6648 79.0058 18.008 79.0027 17.3495ZM70.5197 16.8228C70.5197 16.8228 70.62 14.8865 72.9394 14.8865C75.2588 14.8865 75.3017 16.8228 75.3017 16.8228H70.5197Z" fill="white"/>
<path d="M85.4813 15.2272C85.9909 15.1534 86.5054 15.1177 87.0204 15.1204C88.0473 15.0976 89.0734 15.1955 90.0771 15.4123V12.0523C88.3246 11.6525 86.51 11.5993 84.7368 11.8957C83.5914 12.031 81.2505 12.3442 81.2505 12.3442V24.1895H85.4813V15.2272Z" fill="white"/>
<path d="M102.576 20.6217C102.576 16.5997 96.1334 16.3506 96.1334 15.176C96.1334 13.7523 100.894 14.9625 101.316 15.0408V12.051C100.013 11.7867 98.6872 11.6531 97.3575 11.6523C94.673 11.7022 91.8525 12.5778 91.8525 15.3825C91.8525 19.2692 98.8465 19.0556 98.2953 20.8851C97.8443 22.3657 91.8095 20.6502 91.8095 20.6502V23.7966C93.3287 24.2515 94.9048 24.4911 96.4913 24.5084C99.0899 24.4799 102.576 23.7396 102.576 20.6217Z" fill="white"/>
<path d="M5.69112 29.2344C3.77057 29.2525 1.85943 29.5035 0 29.9818V45.6853H4.43835V41.1793C5.22215 41.2983 6.01646 41.334 6.80787 41.2861C10.3442 41.2078 13.9665 39.9407 13.9665 35.4417C13.9593 30.6154 9.83597 29.2344 5.69112 29.2344ZM6.40698 37.6983C5.74893 37.6909 5.09176 37.6481 4.43835 37.5702V33.1496C5.06857 33.0165 5.71327 32.9639 6.35687 32.993C7.92461 32.993 9.67848 33.5197 9.67848 35.3706C9.67848 37.2214 7.97472 37.6698 6.40698 37.6983Z" fill="white"/>
<path d="M19.944 28.4961H15.7132V45.6802H19.944V28.4961Z" fill="white"/>
<path d="M29.1213 33.2075C27.2745 33.1987 25.4288 33.3033 23.5949 33.5208V36.5604C24.8985 36.3661 26.214 36.2615 27.5321 36.2472C28.7777 36.2472 29.3361 36.6173 29.3361 37.6709V38.0909C27.1885 37.7207 21.6764 37.6424 21.6764 41.7996C21.6262 45.2308 24.8405 46.0708 28.4842 45.9497C30.1911 45.8865 31.8904 45.6914 33.5669 45.366V38.1763C33.5883 34.0618 31.7271 33.3143 29.1213 33.2075ZM29.3361 43.0952C28.0332 43.2803 25.721 43.5437 25.721 41.9064C25.721 40.1552 28.1907 40.4471 29.3361 40.6322V43.0952Z" fill="white"/>
<path d="M50.3109 32.9364C50.3109 31.9825 50.7118 31.1923 52.3296 31.1923C53.2077 31.2176 54.0808 31.3321 54.9354 31.534V28.3662C53.8078 28.1284 52.659 28.0044 51.5064 27.9961C46.8247 27.9961 46.0802 31.2493 46.0802 33.1784V33.4987H39.7806V30.2883H35.5641V40.9661C35.5641 43.002 36.5234 46.0416 41.291 45.949C42.3373 45.9297 43.3797 45.8153 44.405 45.6074V42.3827C43.2986 42.6866 42.1408 42.7593 41.0047 42.5962C40.8177 42.5676 40.6382 42.5025 40.4767 42.4045C40.3151 42.3066 40.1747 42.1778 40.0636 42.0255C39.9524 41.8733 39.8727 41.7006 39.829 41.5175C39.7854 41.3345 39.7786 41.1446 39.8092 40.9589V36.9085H46.1088V45.7141H50.3395V36.9085H54.3054V33.5485H50.3109V32.9364Z" fill="white"/>
<path d="M61.6932 33.207C57.355 33.207 54.9354 35.6629 54.9354 39.6137C54.9354 43.5645 57.355 46.0204 61.6932 46.0204C66.0313 46.0204 68.4724 43.536 68.4724 39.6137C68.4939 35.5277 65.9454 33.207 61.6932 33.207ZM61.6932 42.7459C60.1755 42.7459 59.0301 41.9059 59.0301 39.628C59.0301 37.35 60.1755 36.51 61.6932 36.51C63.2108 36.51 64.3776 37.3572 64.3776 39.628C64.3776 41.8988 63.2036 42.7459 61.6932 42.7459Z" fill="white"/>
<path d="M73.6552 33.3496C72.5099 33.4849 70.169 33.7981 70.169 33.7981V45.6433H74.3997V36.7167C74.9094 36.6428 75.4238 36.6071 75.9388 36.6099C76.9658 36.5871 77.9918 36.685 78.9956 36.9017V33.5418C77.2453 33.1304 75.4308 33.0651 73.6552 33.3496Z" fill="white"/>
<path d="M103.056 39.6215V41.4723H98.8322V39.5147C98.8322 36.4751 97.0211 36.4751 95.9687 36.4751C95.2184 36.489 94.4709 36.57 93.7352 36.7171C94.0135 37.6594 94.1392 38.6398 94.1075 39.6215V45.6793H89.9698V39.5147C89.9698 36.4751 88.1587 36.4751 87.1493 36.4751C86.5877 36.4907 86.028 36.5454 85.4742 36.6388V45.6793H81.2434V33.7771C82.4174 33.649 84.5722 33.3571 85.9252 33.2504C88.1587 33.0938 90.2203 33.1436 91.695 33.9622C93.4418 33.5032 95.2364 33.2476 97.0425 33.2005C100.608 33.2005 103.056 34.5175 103.056 39.6215Z" fill="white"/>
<path d="M107.287 41.4805H103.056V45.6875H107.287V41.4805Z" fill="white"/>
<path d="M162.007 0H150.281V11.6602H162.007V0Z" fill="#D2374A"/>
<path d="M21.7766 8.05859L18.7628 20.3238L15.57 8.05859H10.9312L7.75997 20.3238L4.78197 8.05859H0L4.20212 24.5095H10.8453L13.2363 14.5436L15.3839 24.5095H22.2705L26.4726 8.05859H21.7766Z" fill="white"/>
</g>
<defs>
<clipPath id="clip0_4611_7502">
<rect width="162" height="46" fill="white"/>
</clipPath>
</defs>
</svg>
