<svg width="17" height="29" viewBox="0 0 17 29" fill="none" xmlns="http://www.w3.org/2000/svg">
<path d="M8.50567 0C9.16578 0.767184 9.56808 1.77076 9.56808 2.87295C9.52912 5.2927 9.23944 7.70955 9.21394 10.1242C9.16153 12.3794 9.82164 14.4967 10.6248 16.5633C10.8926 17.134 11.1815 17.6924 11.4712 18.2522L12.3211 18.0767C13.0882 17.9201 13.5868 17.1565 13.4331 16.3712C13.2993 15.6845 12.7086 15.2037 12.0499 15.2037L11.7396 15.2378L12.4316 9.32078C12.6576 6.68857 13.9849 4.37542 15.9376 2.8744C16.2733 2.61626 16.6296 2.37987 17 2.17176V23.1787H12.2631C11.9089 25.1438 10.8508 26.8623 9.36339 28.037C9.00996 28.2865 8.71319 28.6157 8.5 29C8.28752 28.6157 7.99075 28.2865 7.63661 28.037C6.14924 26.8594 5.09108 25.1445 4.73694 23.1787H0V2.17176C0.370428 2.37987 0.72669 2.61626 1.06241 2.8744C3.01725 4.37759 4.34172 6.68857 4.56837 9.32078L5.26035 15.2378L4.95013 15.2037C4.29143 15.2066 3.70073 15.6838 3.56687 16.3712C3.41388 17.1565 3.91251 17.9193 4.67886 18.0767L5.52879 18.2522C5.81847 17.6931 6.10816 17.1347 6.37518 16.5633C7.17907 14.4982 7.83918 12.3808 7.78677 10.1242C7.76127 7.7023 7.47159 5.28763 7.43263 2.87295C7.43263 1.77076 7.83493 0.770085 8.49504 0H8.50567ZM15.5884 5.19916C14.6719 6.30063 14.0564 7.67184 13.8744 9.18228L13.3078 14.0624C14.0337 14.4322 14.5827 15.1109 14.7909 15.9325H15.5934V5.20061L15.5884 5.19916ZM1.42292 5.19916V15.931H2.2254C2.43221 15.1102 2.98254 14.4315 3.70852 14.0609L3.14191 9.18083C2.95846 7.67184 2.34297 6.29918 1.42788 5.19698L1.42292 5.19916ZM8.50567 15.0101C8.12532 16.2842 7.60191 17.4973 6.951 18.6198C7.57004 18.812 8.10832 19.1861 8.50567 19.6901C8.90301 19.1861 9.4413 18.8127 10.0603 18.6191C9.40942 17.4944 8.88601 16.2842 8.50567 15.0101ZM15.5884 17.3842H14.7859C14.5331 18.3856 13.7696 19.176 12.8028 19.4523L12.1221 19.6111C12.3041 20.2869 12.404 20.996 12.404 21.7357H15.5912V17.3849L15.5884 17.3842ZM2.22327 17.3842H1.4208V21.735H4.60803C4.60803 20.9997 4.7079 20.2869 4.88993 19.6103L4.20927 19.4515C3.23894 19.1753 2.47613 18.3841 2.22611 17.3835L2.22327 17.3842ZM10.7367 19.9439C9.87759 20.0679 9.21536 20.8213 9.21536 21.7342H10.986C10.986 21.1128 10.8961 20.5131 10.7367 19.9439ZM6.27673 19.9439C6.11737 20.5131 6.02741 21.1113 6.02741 21.7342H7.7981C7.7981 20.8198 7.13586 20.0679 6.27673 19.9439ZM10.8238 23.1852H9.21394V26.238C9.99304 25.4005 10.5597 24.3527 10.8238 23.1852ZM7.79739 23.1852H6.18748C6.44813 24.3527 7.01617 25.4019 7.79739 26.238V23.1852Z" fill="white"/>
</svg>
