<svg width="14" height="14" viewBox="0 0 14 14" fill="none" xmlns="http://www.w3.org/2000/svg">
<path d="M9.79922 6.99844C9.79922 6.90561 9.76234 6.81659 9.69671 6.75095C9.63107 6.68531 9.54204 6.64844 9.44922 6.64844L5.39412 6.64844L6.54702 5.49624C6.57956 5.4637 6.60537 5.42506 6.62299 5.38255C6.6406 5.34003 6.64966 5.29446 6.64966 5.24844C6.64966 5.20242 6.6406 5.15685 6.62299 5.11433C6.60537 5.07181 6.57956 5.03318 6.54702 5.00064C6.51448 4.9681 6.47584 4.94228 6.43333 4.92467C6.39081 4.90706 6.34524 4.898 6.29922 4.898C6.2532 4.898 6.20763 4.90706 6.16511 4.92467C6.12259 4.94228 6.08396 4.9681 6.05142 5.00064L4.30142 6.75064C4.26882 6.78315 4.24296 6.82177 4.22532 6.86429C4.20768 6.90682 4.19859 6.9524 4.19859 6.99844C4.19859 7.04447 4.20768 7.09006 4.22532 7.13258C4.24296 7.1751 4.26882 7.21373 4.30142 7.24624L6.05142 8.99624C6.11714 9.06196 6.20628 9.09888 6.29922 9.09888C6.39216 9.09888 6.4813 9.06196 6.54702 8.99624C6.61274 8.93052 6.64966 8.84138 6.64966 8.74844C6.64966 8.65549 6.61274 8.56636 6.54702 8.50064L5.39412 7.34844L9.44922 7.34844C9.54204 7.34844 9.63107 7.31156 9.69671 7.24593C9.76234 7.18029 9.79922 7.09126 9.79922 6.99844ZM4.19922 1.39844C3.82792 1.39844 3.47182 1.54594 3.20927 1.80849C2.94672 2.07104 2.79922 2.42713 2.79922 2.79844L2.79922 11.1984C2.79922 11.5697 2.94672 11.9258 3.20927 12.1884C3.47182 12.4509 3.82792 12.5984 4.19922 12.5984L9.79922 12.5984C10.1705 12.5984 10.5266 12.4509 10.7892 12.1884C11.0517 11.9258 11.1992 11.5697 11.1992 11.1984L11.1992 2.79844C11.1992 2.42713 11.0517 2.07104 10.7892 1.80849C10.5266 1.54594 10.1705 1.39844 9.79922 1.39844L4.19922 1.39844ZM3.49922 2.79844C3.49922 2.61279 3.57297 2.43474 3.70424 2.30346C3.83552 2.17219 4.01357 2.09844 4.19922 2.09844L9.79922 2.09844C9.98487 2.09844 10.1629 2.17219 10.2942 2.30346C10.4255 2.43474 10.4992 2.61279 10.4992 2.79844L10.4992 11.1984C10.4992 11.3841 10.4255 11.5621 10.2942 11.6934C10.1629 11.8247 9.98487 11.8984 9.79922 11.8984L4.19922 11.8984C4.01357 11.8984 3.83552 11.8247 3.70424 11.6934C3.57297 11.5621 3.49922 11.3841 3.49922 11.1984L3.49922 2.79844Z" fill="#474747"/>
</svg>
