<svg width="15" height="15" viewBox="0 0 15 15" fill="none" xmlns="http://www.w3.org/2000/svg">
<path d="M7.5 1.64062C3.61734 1.64062 0.46875 5.68852 0.46875 7.08563C0.46875 8.48273 3.61734 12.5306 7.5 12.5306C8.58164 12.5306 9.60586 12.2159 10.5216 11.7326L13.0266 13.3594V9.77016C13.968 8.73891 14.5312 7.67602 14.5312 7.08563C14.5312 5.68852 11.3831 1.64062 7.5 1.64062ZM7.5 10.6369C5.55867 10.6369 3.98438 9.04688 3.98438 7.08586C3.98438 5.12437 5.55867 3.53484 7.5 3.53484C9.4418 3.53484 11.0156 5.12437 11.0156 7.08586C11.0156 9.04688 9.4418 10.6369 7.5 10.6369Z" fill="#5F6CFA"/>
<path d="M7.5 4.95508C7.27148 4.95508 7.05211 4.99281 6.84609 5.06055C6.97727 5.17118 7.08276 5.30907 7.15521 5.46462C7.22767 5.62017 7.26534 5.78965 7.26562 5.96125C7.26562 6.61469 6.74109 7.14484 6.09375 7.14484C5.8429 7.1441 5.59911 7.06166 5.3993 6.91C5.39416 6.96838 5.39126 7.02694 5.39062 7.08555C5.39062 8.26211 6.33492 9.21625 7.5 9.21625C8.66508 9.21625 9.60938 8.26211 9.60938 7.08555C9.60938 5.90875 8.66508 4.95508 7.5 4.95508Z" fill="#5F6CFA"/>
</svg>
