<svg width="22" height="22" viewBox="0 0 22 22" fill="none" xmlns="http://www.w3.org/2000/svg">
<path d="M11 21.3134C10.764 21.3134 10.5417 21.2023 10.4 21.0134C9.73039 20.121 8.99865 19.2769 8.20995 18.4874L2.1388 12.4124C0.859133 11.1618 0.111443 9.46563 0.0511861 7.67755C-0.00907956 5.88912 0.623072 4.1465 1.8157 2.8124C2.98591 1.56955 4.58251 0.814704 6.2857 0.699162C7.98876 0.583482 9.67274 1.11568 11 2.18913C12.3279 1.11638 14.0122 0.584819 15.7156 0.701176C17.4186 0.817696 19.015 1.5734 20.1847 2.8169C21.3773 4.15083 22.0095 5.8934 21.9492 7.68205C21.8889 9.47035 21.1411 11.1665 19.8614 12.4169L13.7864 18.4919C12.9979 19.2814 12.2662 20.1255 11.5965 21.018C11.4547 21.2041 11.2341 21.3133 11 21.3134Z" fill="white"/>
</svg>
