<svg width="15" height="14" viewBox="0 0 15 14" fill="none" xmlns="http://www.w3.org/2000/svg">
<path d="M5.75005 0.700781C5.6307 0.700781 5.51624 0.748191 5.43185 0.832583C5.34746 0.916974 5.30005 1.03143 5.30005 1.15078C5.30005 1.27013 5.34746 1.38459 5.43185 1.46898C5.51624 1.55337 5.6307 1.60078 5.75005 1.60078L11.6 1.60078C12.0774 1.60078 12.5353 1.79042 12.8728 2.12799C13.2104 2.46556 13.4 2.92339 13.4 3.40078L13.4 10.6008C13.4 11.0782 13.2104 11.536 12.8728 11.8736C12.5353 12.2111 12.0774 12.4008 11.6 12.4008L5.75005 12.4008C5.6307 12.4008 5.51624 12.4482 5.43185 12.5326C5.34746 12.617 5.30005 12.7314 5.30005 12.8508C5.30005 12.9701 5.34746 13.0846 5.43185 13.169C5.51624 13.2534 5.6307 13.3008 5.75005 13.3008L11.6 13.3008C12.3161 13.3008 13.0029 13.0163 13.5092 12.51C14.0156 12.0036 14.3 11.3169 14.3 10.6008L14.3 3.40078C14.3 2.6847 14.0156 1.99794 13.5092 1.49159C13.0029 0.985245 12.3161 0.700782 11.6 0.700782L5.75005 0.700781ZM4.71865 10.4694C4.67685 10.5113 4.62719 10.5445 4.57252 10.5672C4.51785 10.5899 4.45924 10.6016 4.40005 10.6016C4.34086 10.6016 4.28225 10.5899 4.22758 10.5672C4.17291 10.5445 4.12325 10.5113 4.08145 10.4694L0.931448 7.31938C0.889541 7.27758 0.856291 7.22792 0.833606 7.17325C0.81092 7.11858 0.799243 7.05997 0.799243 7.00078C0.799243 6.94159 0.81092 6.88298 0.833606 6.82831C0.856291 6.77364 0.889541 6.72398 0.931448 6.68218L4.08145 3.53218C4.12329 3.49034 4.17296 3.45715 4.22762 3.43451C4.28229 3.41187 4.34088 3.40021 4.40005 3.40021C4.45922 3.40021 4.51781 3.41187 4.57247 3.43451C4.62714 3.45715 4.67681 3.49034 4.71865 3.53218C4.76049 3.57402 4.79368 3.62369 4.81632 3.67836C4.83896 3.73302 4.85062 3.79161 4.85062 3.85078C4.85062 3.90995 4.83896 3.96854 4.81632 4.02321C4.79368 4.07787 4.76049 4.12754 4.71865 4.16938L2.33635 6.55078L10.25 6.55078C10.3694 6.55078 10.4839 6.59819 10.5682 6.68258C10.6526 6.76697 10.7 6.88143 10.7 7.00078C10.7 7.12013 10.6526 7.23459 10.5682 7.31898C10.4839 7.40337 10.3694 7.45078 10.25 7.45078L2.33635 7.45078L4.71865 9.83218C4.76056 9.87398 4.7938 9.92364 4.81649 9.97831C4.83917 10.033 4.85085 10.0916 4.85085 10.1508C4.85085 10.21 4.83917 10.2686 4.81649 10.3233C4.7938 10.3779 4.76056 10.4276 4.71865 10.4694Z" fill="#D2374A"/>
</svg>
