<svg width="34" height="24" viewBox="0 0 34 24" fill="none" xmlns="http://www.w3.org/2000/svg">
<path d="M14.7642 18.2434L15.659 15.5591C15.659 14.7538 15.9892 13.781 15.5291 12.9758C15.0689 12.1706 14.4938 11.4804 13.6886 11.0203C12.8834 10.4451 11.1579 10.3301 10.3527 10.3301L8.51222 12.2856L9.2024 13.781V17.2319L8.0521 18.4972L6.9018 17.2319V13.781L7.70701 12.2856L5.7515 10.3301C4.83126 10.3301 3.10581 10.4451 2.3006 11.0203C1.49539 11.4804 1.03527 12.1706 0.57515 12.9758C0.11503 13.781 0 14.4712 0 15.3914V18.2671C0 18.2671 2.99078 19.5325 8.0521 19.5325C13.1134 19.5325 14.7642 18.2434 14.7642 18.2434Z" fill="white"/>
<path d="M8.05204 1.24219C5.86647 1.24219 4.60114 3.31273 4.94623 5.61333C5.29132 7.91393 6.44162 9.52435 8.05204 9.52435C9.66246 9.52435 10.8128 7.91393 11.1579 5.61333C11.5029 3.1977 10.2376 1.24219 8.05204 1.24219Z" fill="white"/>
<path d="M33.9999 18.2671V15.3914C33.9999 14.5862 33.8849 13.781 33.4248 12.9758C32.9647 12.1706 32.3895 11.4804 31.5843 11.0203C30.7791 10.4451 29.0536 10.3301 28.2484 10.3301L26.4079 12.2856L27.0981 13.781V17.2319L25.9478 18.4972L24.7975 17.2319V13.781L25.6027 12.2856L23.6472 10.3301C22.727 10.3301 21.0015 10.4451 20.1963 11.0203C19.3911 11.4804 18.931 12.1706 18.4709 12.9758C18.0108 13.781 18.3431 14.6388 18.3431 15.5591L18.7907 18.2434C18.7907 18.2434 20.8865 19.5325 25.9478 19.5325C31.0091 19.5325 33.9999 18.2671 33.9999 18.2671Z" fill="white"/>
<path d="M25.9478 1.24219C23.7622 1.24219 22.4969 3.31273 22.842 5.61333C23.1871 7.91393 24.3374 9.52435 25.9478 9.52435C27.5582 9.52435 28.7085 7.91393 29.0536 5.61333C29.3987 3.1977 28.1334 1.24219 25.9478 1.24219Z" fill="white"/>
<path d="M27.023 21.859V18.2798C27.023 17.2777 26.8798 16.2755 26.3071 15.2733C25.7344 14.2712 25.0186 13.4121 24.0164 12.8395C23.0143 12.1236 20.8667 11.9805 19.8646 11.9805L17.5739 14.4143L18.4329 16.2755V20.5705L17.0012 22.1454L15.5695 20.5705V16.2755L16.5717 14.4143L14.1379 11.9805C12.9925 11.9805 10.845 12.1236 9.84284 12.8395C8.84067 13.4121 8.268 14.2712 7.69533 15.2733C7.12266 16.2755 6.97949 17.1345 6.97949 18.2798V21.859C6.97949 21.859 10.7018 23.4339 17.0012 23.4339C23.3006 23.4339 27.023 21.859 27.023 21.859Z" fill="white"/>
<path d="M17.0011 0.669922C14.2809 0.669922 12.706 3.24694 13.1356 6.11029C13.5651 8.97364 14.9967 10.978 17.0011 10.978C19.0054 10.978 20.4371 8.97364 20.8666 6.11029C21.2961 3.10377 19.7213 0.669922 17.0011 0.669922Z" fill="white"/>
</svg>
