<svg width="8" height="8" viewBox="0 0 8 8" fill="none" xmlns="http://www.w3.org/2000/svg">
<path d="M4.47018 3.99746L5.90351 2.56746C5.96628 2.50469 6.00154 2.41956 6.00154 2.33079C6.00154 2.24202 5.96628 2.15689 5.90351 2.09412C5.84074 2.03136 5.75561 1.99609 5.66684 1.99609C5.57808 1.99609 5.49295 2.03136 5.43018 2.09412L4.00018 3.52746L2.57018 2.09412C2.50741 2.03136 2.42228 1.99609 2.33351 1.99609C2.24474 1.99609 2.15961 2.03136 2.09684 2.09412C2.03408 2.15689 1.99881 2.24202 1.99881 2.33079C1.99881 2.41956 2.03408 2.50469 2.09684 2.56746L3.53018 3.99746L2.09684 5.42746C2.0656 5.45845 2.0408 5.49531 2.02388 5.53593C2.00696 5.57655 1.99825 5.62012 1.99825 5.66412C1.99825 5.70813 2.00696 5.7517 2.02388 5.79232C2.0408 5.83294 2.0656 5.8698 2.09684 5.90079C2.12783 5.93203 2.1647 5.95683 2.20532 5.97375C2.24594 5.99068 2.28951 5.99939 2.33351 5.99939C2.37752 5.99939 2.42108 5.99068 2.4617 5.97375C2.50232 5.95683 2.53919 5.93203 2.57018 5.90079L4.00018 4.46746L5.43018 5.90079C5.46117 5.93203 5.49803 5.95683 5.53865 5.97375C5.57927 5.99068 5.62284 5.99939 5.66684 5.99939C5.71085 5.99939 5.75442 5.99068 5.79504 5.97375C5.83566 5.95683 5.87252 5.93203 5.90351 5.90079C5.93475 5.8698 5.95955 5.83294 5.97648 5.79232C5.9934 5.7517 6.00211 5.70813 6.00211 5.66412C6.00211 5.62012 5.9934 5.57655 5.97648 5.53593C5.95955 5.49531 5.93475 5.45845 5.90351 5.42746L4.47018 3.99746Z" fill="white"/>
</svg>
