<svg width="14" height="14" viewBox="0 0 14 14" fill="none" xmlns="http://www.w3.org/2000/svg">
<path d="M11.2438 4.06875L8.18125 1.00625C8.09375 0.91875 8.00625 0.875 7.875 0.875H3.5C3.01875 0.875 2.625 1.26875 2.625 1.75V12.25C2.625 12.7312 3.01875 13.125 3.5 13.125H10.5C10.9812 13.125 11.375 12.7312 11.375 12.25V4.375C11.375 4.24375 11.3313 4.15625 11.2438 4.06875ZM7.875 1.925L10.325 4.375H7.875V1.925ZM10.5 12.25H3.5V1.75H7V4.375C7 4.85625 7.39375 5.25 7.875 5.25H10.5V12.25Z" fill="#0A1C27"/>
<path d="M4.375 9.625H9.625V10.5H4.375V9.625ZM4.375 7H9.625V7.875H4.375V7Z" fill="#0A1C27"/>
</svg>
