<svg width="14" height="14" viewBox="0 0 14 14" fill="none" xmlns="http://www.w3.org/2000/svg">
<path d="M14 6.993C14 3.1325 10.864 0 7 0C3.136 0 0 3.1325 0 6.993C0 9.11925 0.966 11.0355 2.478 12.3217C2.492 12.3357 2.506 12.3358 2.506 12.3498C2.632 12.4478 2.758 12.5457 2.898 12.6438C2.968 12.6858 3.024 12.7409 3.094 12.7969C4.25081 13.5812 5.61637 14.0003 7.014 14C8.41163 14.0003 9.77719 13.5812 10.934 12.7969C11.004 12.7549 11.06 12.6997 11.13 12.6569C11.256 12.5598 11.396 12.4618 11.522 12.3638C11.536 12.3498 11.55 12.3497 11.55 12.3357C13.034 11.0346 14 9.11925 14 6.993ZM7 13.1189C5.684 13.1189 4.48 12.6989 3.486 11.9998C3.5 11.8877 3.528 11.7766 3.556 11.6646C3.63942 11.3611 3.76177 11.0696 3.92 10.7975C4.074 10.5315 4.256 10.2935 4.48 10.0835C4.69 9.8735 4.942 9.67838 5.194 9.52437C5.46 9.37038 5.74 9.25838 6.048 9.17437C6.3584 9.09071 6.67853 9.04863 7 9.04925C7.95432 9.04249 8.87357 9.40856 9.562 10.0695C9.884 10.3915 10.136 10.7695 10.318 11.2026C10.416 11.4546 10.486 11.7206 10.528 11.9998C9.49478 12.7261 8.263 13.1169 7 13.1189ZM4.858 6.64388C4.73464 6.36144 4.67261 6.05605 4.676 5.74787C4.676 5.44075 4.732 5.13275 4.858 4.85275C4.984 4.57275 5.152 4.32162 5.362 4.11162C5.572 3.90162 5.824 3.7345 6.104 3.6085C6.384 3.4825 6.692 3.4265 7 3.4265C7.322 3.4265 7.616 3.4825 7.896 3.6085C8.176 3.7345 8.428 3.9025 8.638 4.11162C8.848 4.32162 9.016 4.57363 9.142 4.85275C9.268 5.13275 9.324 5.44075 9.324 5.74787C9.324 6.06987 9.268 6.36387 9.142 6.643C9.0204 6.91886 8.84962 7.17029 8.638 7.385C8.42321 7.5963 8.17179 7.76679 7.896 7.88813C7.31747 8.12587 6.66853 8.12587 6.09 7.88813C5.81421 7.76679 5.56279 7.5963 5.348 7.385C5.13609 7.17341 4.96938 6.92097 4.858 6.643V6.64388ZM11.354 11.2866C11.354 11.2586 11.34 11.2446 11.34 11.2166C11.2023 10.7786 10.9994 10.3639 10.738 9.98637C10.4764 9.60608 10.1549 9.27069 9.786 8.99325C9.50427 8.78131 9.19889 8.60278 8.876 8.46125C9.0229 8.36434 9.159 8.25199 9.282 8.12612C9.49072 7.92007 9.67403 7.68976 9.828 7.44013C10.1381 6.93071 10.2982 6.34418 10.29 5.74787C10.2943 5.30645 10.2086 4.86878 10.038 4.46163C9.86958 4.06931 9.62716 3.71311 9.324 3.4125C9.02129 3.11503 8.66502 2.87752 8.274 2.7125C7.86617 2.54222 7.42793 2.45677 6.986 2.46137C6.54401 2.45705 6.10577 2.54279 5.698 2.71338C5.3036 2.87804 4.94647 3.12059 4.648 3.4265C4.35054 3.72889 4.11302 4.08487 3.948 4.47563C3.77742 4.88278 3.69167 5.32045 3.696 5.76188C3.696 6.06988 3.738 6.36387 3.822 6.643C3.906 6.937 4.018 7.203 4.172 7.45412C4.312 7.70613 4.508 7.93013 4.718 8.14013C4.844 8.26613 4.984 8.37725 5.138 8.47525C4.81411 8.62055 4.50863 8.80384 4.228 9.02125C3.864 9.30125 3.542 9.63637 3.276 10.0004C3.01198 10.3763 2.80882 10.7915 2.674 11.2306C2.66 11.2586 2.66 11.2866 2.66 11.3006C1.554 10.1815 0.868 8.67125 0.868 6.993C0.868 3.6225 3.626 0.867125 7 0.867125C10.374 0.867125 13.132 3.6225 13.132 6.993C13.1302 8.60296 12.4909 10.1467 11.354 11.2866Z" fill="black"/>
</svg>
