<svg width="12" height="12" viewBox="0 0 12 12" fill="none" xmlns="http://www.w3.org/2000/svg">
<g clip-path="url(#clip0_4607_18525)">
<path d="M4.75519 0.402344L4.68639 0.751944L4.42319 2.03034C4.00991 2.19097 3.62317 2.41293 3.27599 2.68874L1.98959 2.25834L1.64399 2.15194L1.46479 2.45994L0.579194 3.94074L0.399994 4.25034L0.662394 4.47994L1.65759 5.32634C1.62159 5.54794 1.57519 5.76634 1.57519 5.99914C1.57519 6.23194 1.62159 6.45114 1.65759 6.67274L0.662394 7.51834L0.399994 7.74794L0.579194 8.05674L1.46479 9.53674L1.64399 9.84634L1.98959 9.73834L3.27599 9.30874C3.62079 9.57914 4.00239 9.80634 4.42319 9.96714L4.68639 11.2455L4.75519 11.5951H7.24399L7.31359 11.2455L7.57599 9.96714C7.98926 9.80647 8.37599 9.58452 8.72319 9.30874L10.0096 9.73834L10.3552 9.84634L10.5352 9.53754L11.42 8.05674L11.6 7.74794L11.3368 7.51834L10.3416 6.67194C10.3784 6.45034 10.424 6.23194 10.424 5.99834C10.424 5.76634 10.3784 5.54714 10.3416 5.32554L11.3368 4.47914L11.6 4.24954L11.42 3.94074L10.5352 2.46074L10.3552 2.15194L10.0096 2.25914L8.72319 2.68874C8.37602 2.41293 7.98928 2.19097 7.57599 2.03034L7.31359 0.751944L7.24399 0.402344H4.75519Z" stroke="#0A1C27" stroke-linecap="square" stroke-linejoin="round"/>
<path d="M7.59999 5.99834C7.59999 6.42269 7.43142 6.82966 7.13136 7.12971C6.83131 7.42977 6.42434 7.59834 5.99999 7.59834C5.57565 7.59834 5.16868 7.42977 4.86862 7.12971C4.56856 6.82966 4.39999 6.42269 4.39999 5.99834C4.39999 5.574 4.56856 5.16703 4.86862 4.86697C5.16868 4.56691 5.57565 4.39834 5.99999 4.39834C6.42434 4.39834 6.83131 4.56691 7.13136 4.86697C7.43142 5.16703 7.59999 5.574 7.59999 5.99834Z" stroke="#0A1C27" stroke-linecap="square" stroke-linejoin="round"/>
</g>
<defs>
<clipPath id="clip0_4607_18525">
<rect width="12" height="12" fill="white"/>
</clipPath>
</defs>
</svg>
