<svg width="15" height="15" viewBox="0 0 15 15" fill="none" xmlns="http://www.w3.org/2000/svg">
<path d="M1.875 5.625H13.125V4.6875C13.125 4.43886 13.0262 4.2004 12.8504 4.02459C12.6746 3.84877 12.4361 3.75 12.1875 3.75H2.8125C2.56386 3.75 2.3254 3.84877 2.14959 4.02459C1.97377 4.2004 1.875 4.43886 1.875 4.6875V5.625ZM1.875 6.5625V11.25C1.875 11.4986 1.97377 11.7371 2.14959 11.9129C2.3254 12.0887 2.56386 12.1875 2.8125 12.1875H12.1875C12.4361 12.1875 12.6746 12.0887 12.8504 11.9129C13.0262 11.7371 13.125 11.4986 13.125 11.25V6.5625H1.875ZM2.8125 2.8125H12.1875C12.6848 2.8125 13.1617 3.01004 13.5133 3.36167C13.865 3.71331 14.0625 4.19022 14.0625 4.6875V11.25C14.0625 11.7473 13.865 12.2242 13.5133 12.5758C13.1617 12.9275 12.6848 13.125 12.1875 13.125H2.8125C2.31522 13.125 1.83831 12.9275 1.48667 12.5758C1.13504 12.2242 0.9375 11.7473 0.9375 11.25V4.6875C0.9375 4.19022 1.13504 3.71331 1.48667 3.36167C1.83831 3.01004 2.31522 2.8125 2.8125 2.8125Z" fill="#0A1C27"/>
<path d="M5.625 1.875V2.8125H9.375V1.875H5.625ZM5.625 0.9375H9.375C9.62364 0.9375 9.8621 1.03627 10.0379 1.21209C10.2137 1.3879 10.3125 1.62636 10.3125 1.875V2.8125C10.3125 3.06114 10.2137 3.2996 10.0379 3.47541C9.8621 3.65123 9.62364 3.75 9.375 3.75H5.625C5.37636 3.75 5.1379 3.65123 4.96209 3.47541C4.78627 3.2996 4.6875 3.06114 4.6875 2.8125V1.875C4.6875 1.62636 4.78627 1.3879 4.96209 1.21209C5.1379 1.03627 5.37636 0.9375 5.625 0.9375Z" fill="#0A1C27"/>
</svg>
