<svg width="16" height="12" viewBox="0 0 16 12" fill="none" xmlns="http://www.w3.org/2000/svg">
<path fill-rule="evenodd" clip-rule="evenodd" d="M2.46589 8.00155C2.30447 7.99633 2.16274 7.99241 2.04582 7.9894H2.04712C1.38308 7.97343 0.800882 7.41262 0.800882 6.66884C0.800781 5.9422 0.800781 4.44365 0.800781 3.7171C0.800781 2.97318 1.38308 2.4123 2.04592 2.39633C2.90362 2.37454 5.10875 2.30061 6.4842 2.06796C7.96357 1.81785 10.2377 0.980325 11.4057 0.661416C11.807 0.55213 12.2331 0.64645 12.558 0.932419C12.8349 1.1763 13.0069 1.54444 13.007 1.939V2.48623C14.2595 2.75032 15.2007 3.86254 15.2007 5.19292C15.2007 6.5233 14.2594 7.63567 13.007 7.8996V8.44672C13.007 8.84128 12.835 9.20951 12.558 9.45331C12.2332 9.73928 11.807 9.8336 11.405 9.72411C10.3648 9.44014 8.44662 8.74434 6.99427 8.41911L7.29109 8.98302C7.60236 9.57445 7.58148 10.2856 7.23605 10.8577C6.8906 11.4299 6.27107 11.7796 5.60268 11.7796H5.60258C4.89633 11.7796 4.24826 11.3883 3.91929 10.7633L2.46564 8.00135L2.46589 8.00155ZM3.5051 8.04364L4.71599 10.3444C4.88926 10.6736 5.23079 10.8797 5.60282 10.8797H5.60292C5.95598 10.8797 6.28325 10.695 6.46577 10.3928C6.64828 10.0905 6.65923 9.71486 6.4948 9.40235L5.87825 8.23094C5.12932 8.13923 4.25825 8.08077 3.505 8.04361L3.5051 8.04364ZM7.80402 7.69338C9.16487 8.0539 10.7336 8.60794 11.6424 8.85605C11.7545 8.88659 11.8729 8.85776 11.9636 8.77791C12.0543 8.69805 12.1073 8.57601 12.1073 8.44684V1.93906C12.1073 1.80989 12.0543 1.68785 11.9636 1.60799C11.8729 1.52814 11.7545 1.49941 11.6425 1.52984C10.7336 1.77794 9.16497 2.3319 7.80412 2.69251V7.69343L7.80402 7.69338ZM6.90402 2.90538C6.81161 2.92397 6.72161 2.94064 6.63433 2.9554C5.21935 3.19467 2.95127 3.27362 2.06876 3.29602C1.86425 3.30094 1.70081 3.48797 1.70081 3.71709C1.70081 4.44362 1.70081 5.94217 1.70091 6.66883C1.70091 6.89785 1.86434 7.08489 2.06875 7.0897C2.95116 7.1122 5.21927 7.19125 6.63432 7.43041C6.72161 7.44518 6.81161 7.46195 6.90402 7.48043V2.90535L6.90402 2.90538ZM13.007 5.19295V6.96965C13.7574 6.72778 14.3008 6.02334 14.3008 5.19305C14.3008 4.36266 13.7574 3.65822 13.007 3.41645V5.19305V5.19295Z" fill="#0A1C27"/>
</svg>
