<svg width="14" height="14" viewBox="0 0 14 14" fill="none" xmlns="http://www.w3.org/2000/svg">
<path d="M12.3874 3.08306L7.13737 1.33306C7.04829 1.30565 6.95302 1.30565 6.86393 1.33306L1.6194 3.08306H1.60846L1.55378 3.1104H1.54831L1.49362 3.14322C1.49362 3.14869 1.48815 3.14869 1.48268 3.15415L1.43893 3.19244L1.40065 3.23619C1.40065 3.24165 1.39518 3.24165 1.39518 3.24712L1.36237 3.29634C1.36237 3.30181 1.36237 3.30181 1.3569 3.30728L1.33503 3.3565L1.31862 3.41665V3.43306C1.31323 3.45449 1.31138 3.47666 1.31315 3.49869V7.87369C1.31315 7.98972 1.35925 8.101 1.44129 8.18305C1.52334 8.26509 1.63462 8.31119 1.75065 8.31119C1.86668 8.31119 1.97796 8.26509 2.06001 8.18305C2.14206 8.101 2.18815 7.98972 2.18815 7.87369V4.10572L4.02565 4.71822C3.68044 5.27078 3.49845 5.90966 3.50065 6.56119C3.50085 7.15373 3.65149 7.73652 3.93844 8.25495C4.22539 8.77337 4.63927 9.21046 5.14128 9.52525C4.09806 9.9199 3.20745 10.6362 2.59831 11.5706C2.53622 11.6687 2.51518 11.7874 2.53973 11.9009C2.56428 12.0145 2.63245 12.1138 2.72956 12.1776C2.77721 12.2092 2.83066 12.231 2.8868 12.2417C2.94293 12.2525 3.00065 12.252 3.05661 12.2403C3.11256 12.2286 3.16564 12.2059 3.21276 12.1736C3.25988 12.1412 3.30011 12.0998 3.33112 12.0518C3.72822 11.4401 4.27193 10.9374 4.9128 10.5894C5.55367 10.2414 6.27138 10.0591 7.00065 10.0591C7.72993 10.0591 8.44763 10.2414 9.0885 10.5894C9.72937 10.9374 10.2731 11.4401 10.6702 12.0518C10.7101 12.1125 10.7645 12.1622 10.8285 12.1966C10.8925 12.2309 10.964 12.2489 11.0366 12.2487C11.1204 12.2496 11.2025 12.2248 11.2717 12.1776C11.3688 12.1138 11.437 12.0145 11.4616 11.9009C11.4861 11.7874 11.4651 11.6687 11.403 11.5706C10.7939 10.6362 9.90325 9.9199 8.86003 9.52525C9.36204 9.21046 9.77591 8.77337 10.0629 8.25495C10.3498 7.73652 10.5005 7.15373 10.5007 6.56119C10.5029 5.90966 10.3209 5.27078 9.97565 4.71822L12.3874 3.91431C12.4749 3.88554 12.5511 3.82987 12.6051 3.75524C12.6592 3.68061 12.6883 3.59082 12.6883 3.49869C12.6883 3.40655 12.6592 3.31676 12.6051 3.24213C12.5511 3.1675 12.4749 3.11183 12.3874 3.08306ZM9.62565 6.56119C9.62565 7.25738 9.34909 7.92506 8.85681 8.41734C8.36453 8.90963 7.69685 9.18619 7.00065 9.18619C6.30446 9.18619 5.63678 8.90963 5.1445 8.41734C4.65221 7.92506 4.37565 7.25738 4.37565 6.56119C4.37671 6.00104 4.55471 5.45555 4.88425 5.00259L6.86393 5.66431C6.95274 5.69353 7.04857 5.69353 7.13737 5.66431L9.11706 5.00259C9.44659 5.45555 9.6246 6.00104 9.62565 6.56119ZM9.11706 4.08384H9.11159L7.00065 4.78931L4.88971 4.08384H4.88425L3.13425 3.49869L7.00065 2.20806L10.8671 3.49869L9.11706 4.08384Z" fill="#0A1C27"/>
</svg>
