<svg width="13" height="13" viewBox="0 0 13 13" fill="none" xmlns="http://www.w3.org/2000/svg">
<ellipse cx="4.2063" cy="4.96682" rx="0.764706" ry="0.763698" fill="#0A1C27"/>
<ellipse cx="6.49835" cy="4.96682" rx="0.764706" ry="0.763698" fill="#0A1C27"/>
<ellipse cx="8.79278" cy="4.96682" rx="0.764706" ry="0.763698" fill="#0A1C27"/>
<path d="M11.375 0.811429C11.5905 0.811429 11.9495 1.04909 11.9495 1.04909C12.1019 1.20126 12.1875 1.40765 12.1875 1.62286V8.11429C12.1875 8.32949 12.1019 8.53588 11.9495 8.68805C11.7972 8.84023 11.5905 8.92571 11.375 8.92571H3.58638C3.15543 8.92581 2.74218 9.09685 2.4375 9.40121L0.8125 11.0241V1.62286C0.8125 1.40765 0.898102 1.20126 1.05048 1.04909C1.20285 0.896918 1.40951 0.811429 1.625 0.811429H11.375ZM1.625 0C1.19402 0 0.780698 0.170979 0.475952 0.475324C0.171205 0.779669 0 1.19245 0 1.62286L0 12.0035C1.70746e-05 12.0837 0.0238815 12.1622 0.0685728 12.2289C0.113264 12.2957 0.176773 12.3477 0.251062 12.3783C0.325351 12.409 0.40708 12.417 0.485904 12.4012C0.564729 12.3855 0.637106 12.3467 0.693875 12.2899L3.01194 9.97489C3.16428 9.82271 3.3709 9.73719 3.58638 9.73714H11.375C11.806 9.73714 12.2193 9.56616 12.524 9.26182C12.8288 8.95747 13 8.54469 13 8.11429V1.62286C13 1.19245 12.8288 0.779669 12.524 0.475324C12.2193 0.170979 11.806 0 11.375 0L1.625 0Z" fill="#0A1C27"/>
</svg>
