<svg width="14" height="14" viewBox="0 0 14 14" fill="none" xmlns="http://www.w3.org/2000/svg">
<path d="M12.25 3.9375C12.25 3.35734 12.0195 2.80094 11.6093 2.3907C11.1991 1.98047 10.6427 1.75 10.0625 1.75H3.9375C3.35734 1.75 2.80094 1.98047 2.3907 2.3907C1.98047 2.80094 1.75 3.35734 1.75 3.9375V10.0625C1.75 10.6427 1.98047 11.1991 2.3907 11.6093C2.80094 12.0195 3.35734 12.25 3.9375 12.25H5.47487C5.25204 11.9801 5.05928 11.6867 4.9 11.375H3.9375C3.5894 11.375 3.25556 11.2367 3.00942 10.9906C2.76328 10.7444 2.625 10.4106 2.625 10.0625V5.25H6.41988C7.203 4.69875 8.15763 4.375 9.1875 4.375C10.3512 4.375 11.4187 4.788 12.25 5.47487V3.9375ZM9.1875 4.375H2.625V3.9375C2.625 3.5894 2.76328 3.25556 3.00942 3.00942C3.25556 2.76328 3.5894 2.625 3.9375 2.625H10.0625C10.4106 2.625 10.7444 2.76328 10.9906 3.00942C11.2367 3.25556 11.375 3.5894 11.375 3.9375V4.375H9.1875ZM8.64062 7.4375C8.64062 7.29246 8.69824 7.15336 8.8008 7.0508C8.90336 6.94824 9.04246 6.89062 9.1875 6.89062C9.33254 6.89062 9.47164 6.94824 9.5742 7.0508C9.67676 7.15336 9.73438 7.29246 9.73438 7.4375C9.73438 7.58254 9.67676 7.72164 9.5742 7.8242C9.47164 7.92676 9.33254 7.98438 9.1875 7.98438C9.04246 7.98438 8.90336 7.92676 8.8008 7.8242C8.69824 7.72164 8.64062 7.58254 8.64062 7.4375ZM9.625 10.9375C9.625 11.0535 9.57891 11.1648 9.49686 11.2469C9.41481 11.3289 9.30353 11.375 9.1875 11.375C9.07147 11.375 8.96019 11.3289 8.87814 11.2469C8.79609 11.1648 8.75 11.0535 8.75 10.9375V9.1875C8.75 9.07147 8.79609 8.96019 8.87814 8.87814C8.96019 8.79609 9.07147 8.75 9.1875 8.75C9.30353 8.75 9.41481 8.79609 9.49686 8.87814C9.57891 8.96019 9.625 9.07147 9.625 9.1875V10.9375ZM5.25 9.1875C5.25 8.67042 5.35185 8.1584 5.54972 7.68068C5.7476 7.20296 6.03764 6.7689 6.40327 6.40327C6.7689 6.03764 7.20296 5.7476 7.68068 5.54972C8.1584 5.35185 8.67042 5.25 9.1875 5.25C9.70458 5.25 10.2166 5.35185 10.6943 5.54972C11.172 5.7476 11.6061 6.03764 11.9717 6.40327C12.3374 6.7689 12.6274 7.20296 12.8253 7.68068C13.0232 8.1584 13.125 8.67042 13.125 9.1875C13.125 10.2318 12.7102 11.2333 11.9717 11.9717C11.2333 12.7102 10.2318 13.125 9.1875 13.125C8.14321 13.125 7.14169 12.7102 6.40327 11.9717C5.66484 11.2333 5.25 10.2318 5.25 9.1875ZM6.125 9.1875C6.125 9.99973 6.44766 10.7787 7.02199 11.353C7.59632 11.9273 8.37527 12.25 9.1875 12.25C9.99973 12.25 10.7787 11.9273 11.353 11.353C11.9273 10.7787 12.25 9.99973 12.25 9.1875C12.25 8.37527 11.9273 7.59632 11.353 7.02199C10.7787 6.44766 9.99973 6.125 9.1875 6.125C8.37527 6.125 7.59632 6.44766 7.02199 7.02199C6.44766 7.59632 6.125 8.37527 6.125 9.1875Z" fill="#0A1C27"/>
</svg>
