<svg width="10" height="17" viewBox="0 0 10 17" fill="none" xmlns="http://www.w3.org/2000/svg">
<path d="M9.82668 2.18199C9.718 2.10919 9.58002 2.09552 9.45928 2.14541C9.38487 2.17613 7.63612 2.92495 7.33509 5.3624C7.06073 7.58332 6.98456 8.48951 6.98154 8.52697C6.9652 8.72532 7.09998 8.90432 7.2946 8.94374C7.31645 8.94836 7.83462 9.06059 7.83462 9.76501C7.83462 10.3226 7.60554 10.4073 7.08722 10.5465C7.0002 10.5699 6.91089 10.5941 6.82316 10.6223C6.7674 10.6406 6.6882 10.6594 6.59693 10.6811C6.48772 10.432 6.37212 10.1851 6.25776 9.94062C5.81222 8.98934 5.35125 8.00559 5.35125 7.00189V0.392088C5.35125 0.175624 5.17581 0 4.95952 0C4.74288 0 4.56743 0.175446 4.56743 0.392088V7.00144C4.56743 8.00705 4.11639 8.9912 3.67974 9.94335C3.56805 10.1875 3.45493 10.434 3.34856 10.6824C3.25747 10.6606 3.17844 10.6414 3.12357 10.6231C3.03781 10.5945 2.94973 10.5704 2.86449 10.5469C2.39535 10.4184 2.13696 10.3475 2.13696 9.7649C2.13696 9.19238 2.42943 9.00045 2.67484 8.94004C2.86165 8.89422 2.98772 8.71966 2.9721 8.5277C2.96908 8.49024 2.8945 7.58424 2.62618 5.36364C2.33193 2.9271 0.617099 2.17738 0.544273 2.14665C0.423164 2.09569 0.284658 2.10865 0.175447 2.18128C0.0662347 2.25391 0 2.37661 0 2.50784V13.0372C0 13.2536 0.175447 13.4292 0.392266 13.4292H2.7858C2.9996 15.3755 4.6976 16.2081 4.77447 16.2449C4.82898 16.2708 4.88598 16.2831 4.94245 16.2831C4.94814 16.2831 4.95346 16.282 4.95879 16.2819C4.96465 16.282 4.97051 16.2831 4.97637 16.2831C5.03213 16.2831 5.08807 16.2712 5.14187 16.2462C5.22054 16.2092 6.95334 15.3773 7.17154 13.4293H9.60826C9.82473 13.4293 10 13.2538 10 13.0372V2.50786C10.0005 2.37681 9.93536 2.25463 9.82668 2.182L9.82668 2.18199ZM6.38685 12.6449H5.38161C5.47554 12.0707 5.78275 11.7961 6.13682 11.6384C6.25704 11.9756 6.34672 12.3102 6.38685 12.6449ZM4.96374 8.93341C5.1351 9.39032 5.34251 9.83478 5.54799 10.2731C5.64903 10.489 5.74883 10.7023 5.84276 10.9136C5.52455 11.0516 5.19797 11.2645 4.9549 11.6145C4.72014 11.2709 4.40656 11.059 4.09985 10.921C4.19325 10.7063 4.29234 10.4897 4.39285 10.2701C4.59315 9.83286 4.7963 9.38909 4.96377 8.93345L4.96374 8.93341ZM3.81125 11.6494C4.14581 11.8087 4.43314 12.084 4.52279 12.6448H3.57096C3.60967 12.3138 3.69579 11.9829 3.81122 11.6494H3.81125ZM0.78429 3.24488C1.19467 3.61602 1.70821 4.29986 1.84831 5.4573C2.03086 6.96688 2.12373 7.8752 2.16458 8.30011C1.73147 8.52368 1.35321 8.99055 1.35321 9.76477C1.35321 10.9453 2.16971 11.1692 2.65736 11.3029C2.73602 11.3242 2.81043 11.345 2.87578 11.3665C2.93278 11.3853 2.99652 11.4024 3.06205 11.4189C2.92514 11.8195 2.82251 12.2278 2.78202 12.6443H0.783572L0.783749 3.24469L0.78429 3.24488ZM4.96179 15.4521C4.60664 15.2355 3.74629 14.5972 3.57741 13.4284H4.94315H4.9451C4.94759 13.4284 4.9499 13.4277 4.95203 13.4277C4.95451 13.4277 4.95718 13.4284 4.95949 13.4284H6.37973C6.20695 14.5987 5.32334 15.2372 4.9618 15.4521H4.96179ZM9.2167 12.6446H7.1753C7.13428 12.2266 7.02916 11.8178 6.88887 11.4165C6.95155 11.401 7.0121 11.3849 7.06627 11.3673C7.13392 11.3451 7.20993 11.3249 7.29001 11.3034C7.7867 11.17 8.61847 10.9468 8.61847 9.76467C8.61847 8.95263 8.17862 8.50476 7.78989 8.30037C7.83162 7.87543 7.92662 6.96714 8.11325 5.45825C8.2578 4.28589 8.79496 3.59991 9.21687 3.23196L9.2167 12.6446Z" fill="#0A1C27"/>
</svg>
