<svg width="16" height="16" viewBox="0 0 16 16" fill="none" xmlns="http://www.w3.org/2000/svg">
<path fill-rule="evenodd" clip-rule="evenodd" d="M11.0762 4.40333L11.0462 4.38C10.9886 3.942 10.7789 3.48567 10.4516 3.101C9.9199 2.476 9.05324 2 7.89323 2C6.7499 2 5.94423 2.52133 5.4689 3.16767C5.24718 3.46666 5.08874 3.80772 5.00323 4.17C4.98767 4.23784 4.97521 4.30636 4.9659 4.37533L4.9299 4.403C4.55523 4.69333 4.28024 5.04533 4.34557 5.449C4.40824 5.839 4.7609 6.07633 5.0889 6.22133C5.17223 6.25833 5.26223 6.293 5.3579 6.32533C5.30971 6.70109 5.34213 7.08281 5.45301 7.44506C5.56388 7.8073 5.75067 8.14177 6.00093 8.42618C6.25119 8.71058 6.55918 8.9384 6.90438 9.09446C7.24958 9.25053 7.62406 9.33124 8.0029 9.33124C8.38174 9.33124 8.75623 9.25053 9.10143 9.09446C9.44663 8.9384 9.75461 8.71058 10.0049 8.42618C10.2551 8.14177 10.4419 7.8073 10.5528 7.44506C10.6637 7.08281 10.6961 6.70109 10.6479 6.32533C10.7436 6.293 10.8336 6.25867 10.9169 6.22133C11.2449 6.07633 11.5972 5.839 11.6602 5.449C11.7256 5.04533 11.4506 4.69333 11.0759 4.403L11.0762 4.40333ZM5.65157 4.89067C5.60823 4.766 5.5969 4.56567 5.65324 4.318C5.70857 4.07633 5.82324 3.81133 6.00324 3.566V4.5C6.00324 4.58841 6.03835 4.67319 6.10087 4.7357C6.16338 4.79821 6.24816 4.83333 6.33657 4.83333C6.42497 4.83333 6.50976 4.79821 6.57227 4.7357C6.63478 4.67319 6.6699 4.58841 6.6699 4.5V2.97C6.94424 2.814 7.2759 2.705 7.6699 2.675V3.83333C7.6699 3.92174 7.70502 4.00652 7.76753 4.06904C7.83004 4.13155 7.91483 4.16667 8.00323 4.16667C8.09164 4.16667 8.17643 4.13155 8.23894 4.06904C8.30145 4.00652 8.33657 3.92174 8.33657 3.83333V2.69567C8.68856 2.74003 9.02836 2.8533 9.33657 3.029V4.5C9.33657 4.58841 9.37169 4.67319 9.4342 4.7357C9.49671 4.79821 9.5815 4.83333 9.6699 4.83333C9.75831 4.83333 9.84309 4.79821 9.9056 4.7357C9.96812 4.67319 10.0032 4.58841 10.0032 4.5V3.606C10.3716 4.078 10.4579 4.58733 10.3542 4.893C10.3286 4.96865 10.3309 5.05101 10.3608 5.12508C10.3908 5.19915 10.4463 5.26 10.5174 5.29655C10.5884 5.3331 10.6702 5.34292 10.7479 5.32422C10.8256 5.30552 10.8939 5.25954 10.9406 5.19467C11.0062 5.28633 11.0039 5.335 11.0026 5.34267C10.9982 5.36933 10.9472 5.47933 10.6476 5.612C10.5176 5.66933 10.3629 5.721 10.1892 5.76667L10.1812 5.76867C9.9929 5.81733 9.78324 5.85867 9.5589 5.89267C9.14284 5.95266 8.7235 5.98717 8.30323 5.996C8.01433 6.00322 7.72525 6.0001 7.43657 5.98667C7.10452 5.9718 6.77343 5.94021 6.44457 5.892C6.23611 5.86172 6.02939 5.82056 5.82523 5.76867L5.81723 5.76667C5.66062 5.72728 5.50736 5.67556 5.3589 5.612C5.05923 5.47933 5.00823 5.36933 5.0039 5.34267C5.00257 5.335 5.00023 5.28633 5.0659 5.19467C5.1126 5.25984 5.18123 5.306 5.2592 5.32467C5.33717 5.34335 5.41926 5.3333 5.49042 5.29636C5.56158 5.25943 5.61705 5.19808 5.64664 5.12356C5.67624 5.04905 5.67799 4.96637 5.65157 4.89067ZM6.01057 6.49367C6.12123 6.51533 6.2359 6.535 6.35323 6.55267C6.70923 6.606 7.09257 6.64 7.48257 6.656C7.8302 6.67028 8.17827 6.67028 8.5259 6.656C8.9139 6.64 9.2959 6.606 9.65024 6.55267C9.76592 6.53582 9.88118 6.51615 9.9959 6.49367C10.0196 6.76972 9.9857 7.04768 9.89632 7.30994C9.80694 7.57219 9.66405 7.81302 9.4767 8.01714C9.28936 8.22127 9.06164 8.38424 8.80799 8.49573C8.55435 8.60721 8.2803 8.66478 8.00323 8.66478C7.72617 8.66478 7.45212 8.60721 7.19848 8.49573C6.94483 8.38424 6.71711 8.22127 6.52977 8.01714C6.34242 7.81302 6.19953 7.57219 6.11015 7.30994C6.02077 7.04768 5.98686 6.76972 6.01057 6.49367Z" fill="#0A1C27"/>
<path fill-rule="evenodd" clip-rule="evenodd" d="M9.66667 9.49609C9.886 9.53443 10.1093 9.57909 10.3333 9.63009C12.1477 10.0444 14 10.8728 14 11.9994V13.9994H2V11.9994C2 10.8728 3.85233 10.0444 5.66667 9.63009C5.8877 9.57973 6.11 9.53504 6.33333 9.49609V10.9994H9.66667V9.49609ZM5 10.4961C5.218 10.4294 5.44167 10.3691 5.66667 10.3148V11.6661H10.3333V10.3151C10.671 10.3959 11.0047 10.4924 11.3333 10.6044V13.3328H12V10.8651C12.0967 10.9081 12.19 10.9524 12.2793 10.9981C12.6583 11.1908 12.9393 11.3894 13.1173 11.5794C13.2923 11.7661 13.3333 11.9038 13.3333 11.9994V13.3328H2.66667V11.9994C2.66667 11.9038 2.70767 11.7661 2.88267 11.5794C3.06067 11.3894 3.34167 11.1908 3.72067 10.9981C3.91033 10.9014 4.116 10.8108 4.33333 10.7264V13.3328H5V10.4964V10.4961Z" fill="#0A1C27"/>
</svg>
